#!OML:ASF E:\emotionWalksFemale\Project 1\Capture day 1\Session 1\Female1.ASF
:FULLY-SPECIFIED
:DEGREES
360
root 6.87164 13.8773 21.1191 197.438 64.5462 -526.022
lowerback 17.9461 3.02356 -6.33011
upperback 0.0518773 2.66714 -1.11669
thorax -10.287 1.59274 1.6512
lowerneck -0.428391 -12.2617 -15.4329
upperneck -14.8688 -14.5211 21.9781
head -1.25739 -7.18222 9.11957
rclavicle -5.1684e-015 -1.74931e-014
rhumerus -23.7528 9.52447 -65.5305
rradius 63.4101
rwrist -9.72118
rhand -6.30745 -69.0798
rfingers 7.12502
rthumb 19.5368 -261.882
lclavicle -5.1684e-015 -1.74931e-014
lhumerus -8.40948 25.6573 54.736
lradius 23.9441
lwrist -47.5606
lhand 19.6181 -39.6286
lfingers 7.12502
lthumb 44.1791 -15.8128
rfemur -34.0115 -11.9282 35.3765
rtibia 63.0271
rfoot -32.4594 -36.4036
rtoes 26.9984
lfemur -37.6377 -6.40158 -17.7191
ltibia 65.9084
lfoot -36.0223 -6.97548
ltoes -30.774
361
root 6.85282 13.912 21.0967 196.661 64.2883 -527.182
lowerback 17.9374 2.85895 -6.21543
upperback -0.0244812 2.45372 -1.29265
thorax -10.3362 1.48345 1.4502
lowerneck -0.497012 -12.3262 -15.3088
upperneck -14.9246 -14.5869 21.9515
head -1.26256 -7.21452 9.08358
rclavicle 9.46215e-014 -7.95139e-015
rhumerus -23.0112 10.7795 -66.3724
rradius 65.5911
rwrist -7.37864
rhand -3.08516 -67.9643
rfingers 7.12502
rthumb 22.6322 -263.343
lclavicle 9.46215e-014 -7.95139e-015
lhumerus -10.6208 25.749 53.1968
lradius 24.4396
lwrist -46.9181
lhand 20.1894 -39.2955
lfingers 7.12502
lthumb 44.7115 -15.6832
rfemur -34.2347 -11.7254 34.7013
rtibia 62.9395
rfoot -32.4316 -36.2468
rtoes 26.8766
lfemur -37.695 -6.49093 -18.2928
ltibia 65.3167
lfoot -35.9418 -6.87515
ltoes -31.6736
362
root 6.83356 13.9488 21.076 196.392 63.7991 -527.907
lowerback 17.7607 2.58274 -5.92446
upperback -0.133885 2.14822 -1.34195
thorax -10.3204 1.32263 1.31924
lowerneck -0.611868 -12.3663 -15.1685
upperneck -14.8452 -14.6445 21.8051
head -1.23787 -7.23859 8.99861
rclavicle 1.47101e-014 -4.77083e-015
rhumerus -22.4008 12.4106 -67.2548
rradius 67.9034
rwrist -5.31042
rhand -1.63734 -67.1454
rfingers 7.12502
rthumb 24.0212 -264.338
lclavicle 1.47101e-014 -4.77083e-015
lhumerus -12.8391 25.7769 51.8944
lradius 24.9
lwrist -45.1372
lhand 21.1379 -38.4271
lfingers 7.12502
lthumb 45.5936 -15.1652
rfemur -34.4947 -11.7079 34.2664
rtibia 62.6567
rfoot -32.6794 -35.7301
rtoes 27.2004
lfemur -37.9741 -6.69412 -18.5625
ltibia 64.6948
lfoot -35.6061 -7.59572
ltoes -30.6057
363
root 6.81435 13.9886 21.0565 196.159 63.3421 -528.394
lowerback 17.7174 2.29466 -5.7113
upperback -0.199598 1.81488 -1.25906
thorax -10.34 1.15606 1.37981
lowerneck -0.670528 -12.3877 -15.0473
upperneck -14.6962 -14.712 21.508
head -1.21626 -7.26762 8.87007
rclavicle 2.42517e-014 -1.43125e-014
rhumerus -21.8099 14.3916 -68.0643
rradius 70.2984
rwrist -3.51279
rhand -0.646842 -66.6091
rfingers 7.12502
rthumb 24.9707 -265.003
lclavicle 2.42517e-014 -1.43125e-014
lhumerus -15.2872 25.3111 50.5913
lradius 25.4258
lwrist -42.2121
lhand 18.7622 -38.3219
lfingers 7.12502
lthumb 43.3803 -14.2117
rfemur -34.4175 -11.866 33.9202
rtibia 62.1043
rfoot -32.5771 -35.3686
rtoes 26.9129
lfemur -38.0465 -6.80229 -18.7268
ltibia 63.9776
lfoot -34.9095 -9.62737
ltoes -25.9895
364
root 6.7966 14.0269 21.0324 195.95 63.0125 -528.664
lowerback 17.781 2.08656 -5.52882
upperback -0.256194 1.58001 -1.11291
thorax -10.4211 1.04025 1.49729
lowerneck -0.732174 -12.3853 -14.9583
upperneck -14.7275 -14.7038 21.3453
head -1.24126 -7.25921 8.80427
rclavicle -1.39149e-014 -1.90833e-014
rhumerus -21.393 16.4936 -68.804
rradius 72.9109
rwrist -1.97156
rhand -0.189086 -67.0516
rfingers 7.12502
rthumb 25.4092 -264.622
lclavicle -1.39149e-014 -1.90833e-014
lhumerus -17.6995 24.7767 49.5417
lradius 26.1373
lwrist -38.9344
lhand 21.5037 -38.8402
lfingers 7.12502
lthumb 45.9332 -15.7179
rfemur -34.0561 -12.1301 33.624
rtibia 61.3345
rfoot -32.2989 -35.1737
rtoes 26.2247
lfemur -37.5604 -7.16378 -18.684
ltibia 63.1814
lfoot -33.7512 -13.3573
ltoes -12.935
365
root 6.78357 14.084 21.0047 195.869 62.8135 -528.729
lowerback 17.8074 1.95367 -5.30296
upperback -0.330027 1.4576 -0.943721
thorax -10.5079 0.97589 1.58623
lowerneck -0.973888 -12.41 -14.8686
upperneck -14.3523 -14.7769 21.1143
head -1.11424 -7.2823 8.67659
rclavicle 7.15625e-014 -3.97569e-014
rhumerus -21.2316 17.9152 -69.7454
rradius 75.3489
rwrist -0.283026
rhand -0.981569 -67.5096
rfingers 7.12502
rthumb 24.6499 -264.058
lclavicle 7.15625e-014 -3.97569e-014
lhumerus -20.0942 23.8771 48.8086
lradius 27.3207
lwrist -34.605
lhand 21.9088 -38.9403
lfingers 7.12502
lthumb 46.3089 -15.9755
rfemur -33.4465 -12.402 33.4108
rtibia 60.2556
rfoot -31.742 -35.0008
rtoes 24.8772
lfemur -37.1401 -7.17326 -18.8867
ltibia 62.1959
lfoot -33.6481 -12.514
ltoes -18.2883
366
root 6.77493 14.1492 20.9744 196.098 62.6309 -528.493
lowerback 17.7142 1.81583 -4.95538
upperback -0.459575 1.36526 -0.692215
thorax -10.5903 0.920988 1.69044
lowerneck -1.17077 -12.4124 -14.9474
upperneck -13.816 -14.8675 20.7548
head -0.946746 -7.30835 8.52983
rclavicle -3.06128e-014 1.59028e-015
rhumerus -21.3066 19.6272 -70.7022
rradius 77.9335
rwrist 0.969178
rhand -2.73053 -67.4079
rfingers 7.12502
rthumb 22.9726 -263.941
lclavicle -3.06128e-014 1.59028e-015
lhumerus -22.6539 23.0713 48.2796
lradius 28.7792
lwrist -30.1974
lhand 23.2016 -38.0453
lfingers 7.12502
lthumb 47.5051 -15.6048
rfemur -32.8047 -12.6707 33.394
rtibia 59.007
rfoot -30.6419 -35.0974
rtoes 22.7734
lfemur -36.7255 -7.22351 -18.9149
ltibia 61.0884
lfoot -33.5493 -11.3965
ltoes -24.0276
367
root 6.76879 14.2205 20.9394 196.657 62.5439 -527.917
lowerback 17.4953 1.66258 -4.46516
upperback -0.612821 1.29031 -0.415818
thorax -10.6255 0.866222 1.73827
lowerneck -1.269 -12.4092 -15.0791
upperneck -13.3079 -14.9578 20.4146
head -0.79746 -7.33979 8.40635
rclavicle -5.06901e-014 5.725e-014
rhumerus -21.517 21.5211 -71.7631
rradius 80.6213
rwrist 2.20697
rhand -5.64258 -66.8117
rfingers 7.12502
rthumb 20.1759 -264.216
lclavicle -5.06901e-014 5.725e-014
lhumerus -25.2754 22.6338 47.7631
lradius 30.1487
lwrist -26.9544
lhand 23.935 -37.0138
lfingers 7.12502
lthumb 48.1816 -14.8862
rfemur -32.14 -12.6687 33.4432
rtibia 57.5768
rfoot -29.5432 -35.3986
rtoes 21.2376
lfemur -36.1447 -7.28205 -18.7056
ltibia 59.8389
lfoot -33.0381 -11.5594
ltoes -24.0578
368
root 6.76491 14.3125 20.9005 197.119 62.7351 -527.496
lowerback 17.2161 1.58971 -4.19589
upperback -0.798868 1.27326 -0.187837
thorax -10.6716 0.850285 1.84283
lowerneck -1.3879 -12.395 -15.0053
upperneck -12.8859 -15.0081 20.0318
head -0.696538 -7.35651 8.24615
rclavicle -8.44835e-014 -6.36111e-015
rhumerus -21.8982 23.4296 -72.9145
rradius 83.2978
rwrist 3.46715
rhand -5.42185 -67.942
rfingers 7.12502
rthumb 20.3881 -263.108
lclavicle -8.44835e-014 -6.36111e-015
lhumerus -27.8819 22.2863 47.2614
lradius 31.3851
lwrist -24.7235
lhand 23.2757 -35.7887
lfingers 7.12502
lthumb 47.5735 -13.3793
rfemur -31.5391 -12.5641 33.3762
rtibia 56.2241
rfoot -29.3488 -34.9893
rtoes 22.1875
lfemur -35.3664 -7.16604 -18.6708
ltibia 58.3677
lfoot -32.5504 -11.2497
ltoes -25.013
369
root 6.764 14.415 20.8587 197.361 63.075 -527.338
lowerback 16.931 1.60616 -4.14079
upperback -1.05316 1.32795 0.0301032
thorax -10.8011 0.882348 2.03815
lowerneck -1.49774 -12.335 -14.8641
upperneck -12.4472 -14.9991 19.5582
head -0.616744 -7.3448 8.05477
rclavicle 1.03368e-014 -1.43125e-014
rhumerus -22.5592 25.35 -74.1618
rradius 85.7957
rwrist 4.41045
rhand -5.2894 -68.338
rfingers 7.12502
rthumb 20.5153 -262.726
lclavicle 1.03368e-014 -1.43125e-014
lhumerus -30.7139 19.9012 47.4213
lradius 33.4622
lwrist -21.7976
lhand 23.4556 -34.2145
lfingers 7.12502
lthumb 47.7396 -11.8811
rfemur -30.8106 -12.1067 32.9382
rtibia 54.7843
rfoot -30.8861 -33.2111
rtoes 28.3364
lfemur -34.424 -7.15901 -18.7789
ltibia 56.6738
lfoot -31.9237 -10.8941
ltoes -25.5676
370
root 6.76829 14.5086 20.8127 197.657 63.5111 -527.056
lowerback 16.5085 1.63039 -3.95485
upperback -1.29018 1.42442 0.217012
thorax -10.8301 0.924484 2.11693
lowerneck -1.64521 -12.2584 -14.8344
upperneck -11.7395 -15.0009 19.0719
head -0.444095 -7.33567 7.86172
rclavicle 2.40529e-014 -1.82882e-014
rhumerus -23.42 27.2614 -75.6168
rradius 87.917
rwrist 5.02654
rhand -5.10145 -67.5338
rfingers 7.12502
rthumb 20.6959 -263.55
lclavicle 2.40529e-014 -1.82882e-014
lhumerus -33.2835 17.5575 47.7124
lradius 35.0355
lwrist -20.8879
lhand 25.5967 -34.0951
lfingers 7.12502
lthumb 49.7084 -12.7207
rfemur -29.7353 -11.7469 32.6356
rtibia 53.2102
rfoot -31.8629 -31.6374
rtoes 32.9637
lfemur -33.3264 -7.33832 -18.8207
ltibia 54.8629
lfoot -31.031 -10.8349
ltoes -23.9127
371
root 6.77897 14.6158 20.7652 198.357 64.0785 -526.379
lowerback 15.8598 1.62609 -3.59565
upperback -1.50228 1.52583 0.396796
thorax -10.6939 0.956312 2.0928
lowerneck -2.01948 -12.1716 -14.7727
upperneck -10.7406 -14.9971 18.4213
head -0.170816 -7.31263 7.58922
rclavicle 2.22639e-014 -5.56597e-015
rhumerus -24.3285 29.1379 -77.2569
rradius 89.5966
rwrist 5.57969
rhand -7.65969 -71.2033
rfingers 7.12502
rthumb 18.2363 -259.632
lclavicle 2.22639e-014 -5.56597e-015
lhumerus -35.7683 15.0046 48.1677
lradius 36.1532
lwrist -21.1901
lhand 26.0552 -34.7584
lfingers 7.12502
lthumb 50.1281 -13.6032
rfemur -28.8589 -11.3313 32.588
rtibia 51.3339
rfoot -30.3225 -32.1707
rtoes 32.1042
lfemur -32.1836 -7.30742 -18.7087
ltibia 52.9717
lfoot -30.0967 -10.7494
ltoes -22.4431
372
root 6.79243 14.7143 20.7155 199.045 64.7588 -525.733
lowerback 15.1429 1.56464 -3.38966
upperback -1.74282 1.52834 0.651718
thorax -10.5485 0.953957 2.26322
lowerneck -2.64193 -11.9696 -14.7537
upperneck -9.42079 -14.8375 17.5665
head 0.194847 -7.20054 7.2509
rclavicle 2.52457e-014 -2.38542e-014
rhumerus -25.3195 31.4999 -79.1119
rradius 91.071
rwrist 5.53542
rhand -8.8438 -72.1316
rfingers 7.12502
rthumb 17.0968 -258.601
lclavicle 2.52457e-014 -2.38542e-014
lhumerus -38.4251 12.2712 48.8807
lradius 37.0782
lwrist -21.5662
lhand 25.6887 -35.2352
lfingers 7.12502
lthumb 49.7927 -13.9043
rfemur -27.8877 -10.9828 32.6045
rtibia 49.2128
rfoot -29.1112 -32.9781
rtoes 31.2008
lfemur -31.0401 -7.04837 -18.7039
ltibia 51.072
lfoot -29.2665 -10.1003
ltoes -23.6599
373
root 6.80739 14.7977 20.6601 199.313 65.5455 -525.369
lowerback 14.5562 1.52071 -3.26346
upperback -1.9781 1.52917 0.85915
thorax -10.4722 0.955638 2.42455
lowerneck -2.6886 -11.5818 -14.8952
upperneck -8.71659 -14.4067 17.0265
head 0.29587 -6.9824 7.1195
rclavicle -2.78299e-014 -2.62396e-014
rhumerus -26.5617 33.7224 -81.254
rradius 92.2951
rwrist 5.56122
rhand -7.20729 -71.2826
rfingers 7.12502
rthumb 18.6714 -259.593
lclavicle -2.78299e-014 -2.62396e-014
lhumerus -40.9913 9.18602 49.996
lradius 37.7511
lwrist -21.9996
lhand 26.1244 -35.6712
lfingers 7.12502
lthumb 50.1914 -14.5496
rfemur -26.4292 -10.8921 32.5143
rtibia 46.9588
rfoot -27.2798 -33.5848
rtoes 28.864
lfemur -29.6306 -7.14882 -18.8198
ltibia 49.0728
lfoot -27.9799 -10.4592
ltoes -18.3906
